PathFileType	4	(X/Y/Z)	3_coords_data.trc
DataRate	CameraRate	NumFrames	NumMarkers	Units	OrigDataRate	OrigDataStartFrame	OrigNumFrames
30.0	30.0	6	21	m	30.0	61	81
Frame#	Time	THUMB_TIP	THUMB_IP	THUMB_MCP	THUMB_CMC	INDEX_TIP	INDEX_DIP	INDEX_PIP	INDEX_MCP	MIDDLE_TIP	MIDDLE_DIP	MIDDLE_PIP	MIDDLE_MCP	RING_TIP	RING_DIP	RING_PIP	RING_MCP	PINKY_TIP	PINKY_DIP	PINKY_PIP	PINKY_MCP	WRIST
X1	Y1	Z1	X2	Y2	Z2	X3	Y3	Z3	X4	Y4	Z4	X5	Y5	Z5	X6	Y6	Z6	X7	Y7	Z7	X8	Y8	Z8	X9	Y9	Z9	X10	Y10	Z10	X11	Y11	Z11	X12	Y12	Z12	X13	Y13	Z13	X14	Y14	Z14	X15	Y15	Z15	X16	Y16	Z16	X17	Y17	Z17	X18	Y18	Z18	X19	Y19	Z19	X20	Y20	Z20	X21	Y21	Z21
59	1.9999999999999911	0.5148643856750053	-0.0076299978370802934	-0.16291137494894004	0.5046482960063513	-0.011987460768660418	-0.14279560927417811	0.4881812263038041	-0.022371943916044135	-0.11850943779382417	0.4784022806067709	-0.027347399937567407	-0.0752716411520854	0.5784561810099191	0.032354843828011404	-0.15333208622665234	0.5612437700162091	0.03064923005985526	-0.14796330708633726	0.5382345211788867	0.026607860942556794	-0.1386761311646736	0.5056014639024785	0.010838935988020104	-0.11631409475085702	0.5898574157842671	0.04637184199029576	-0.13419765536891748	0.5727242214741414	0.04462950279317479	-0.12859248749867036	0.5452499810945369	0.041417394072950864	-0.11941327058581919	0.5094932539107259	0.023213065680198264	-0.09976112541356558	0.5856086094220391	0.04879938646382742	-0.10644355953145462	0.5682460799573738	0.05243143139840428	-0.10322629047496518	0.5439895510111293	0.051934210857398855	-0.09760903543236549	0.5127716503625603	0.03109145323848067	-0.08258429024533798	0.5789789819076462	0.048912238489235316	-0.08110936394714074	0.562618228694998	0.051490831305024076	-0.07678771919020133	0.5424067893234279	0.04891464599913958	-0.07172086545251655	0.5149474848664372	0.027921939893649328	-0.06141667503760251	0.462283081001861	-0.023011742144276925	-0.051989820119430985
60	2.0333333333333243	0.5149538266899585	-0.007588172762625689	-0.16286699484573608	0.5047207082764782	-0.01200076520242399	-0.14277191297240377	0.4881992232311906	-0.02236418835594589	-0.1185137186364813	0.47839203627462057	-0.027332507260846017	-0.07528149811453622	0.5780744194507967	0.033128423587126365	-0.15369065797321402	0.5609376660333928	0.03115961864325073	-0.14817200873593994	0.5380173535437421	0.026900755353875372	-0.13876290719226558	0.5055514170629781	0.0109370077336578	-0.11629609112178052	0.5895832738642542	0.047059325121727	-0.13444477228756663	0.572501279070493	0.0451306797467248	-0.12874514239753027	0.545099159842473	0.041655519035420474	-0.11944693451407318	0.5094726281732185	0.023248761396267692	-0.09974694884318752	0.5855552771517136	0.04915983813031921	-0.1064740683367576	0.5681772279192129	0.05266295909871149	-0.10319816413278698	0.5439319571984692	0.05204644372494033	-0.09754425084447493	0.5127425022922667	0.03113343603510682	-0.08255809569984485	0.5789326832129804	0.04930195098406115	-0.08098514576859506	0.5625524987755333	0.051740973594832596	-0.07665608969372617	0.5423537991005503	0.04903761748967178	-0.07160471203921182	0.5149495720196912	0.027921733972232576	-0.06140612133369483	0.4622830810018608	-0.023011742144276925	-0.051989820119430985
61	2.0666666666666575	0.5150157461287997	-0.00757469370527819	-0.1628135867122713	0.5047709966545646	-0.01202824492886767	-0.14273347242701329	0.4881597288081425	-0.022362327257420933	-0.11852412458447315	0.47839747064664284	-0.027318468014612574	-0.07528033908432141	0.5777041246975225	0.03383849044425913	-0.1540465629594005	0.5606469412989326	0.031592317092452415	-0.14838907236899745	0.537813165525703	0.0271353225817334	-0.13886207300564585	0.5054938793254521	0.011027336725598968	-0.11628702870524965	0.5893221209077301	0.04765305186361579	-0.13470961559914313	0.5722950462921076	0.045540817076124396	-0.12891158194655566	0.5449615976354689	0.04184123868399181	-0.11949854554721223	0.509446616842306	0.023286800944859243	-0.09973578004119249	0.5854988832521801	0.04937741600819201	-0.10648469027527308	0.5681108370088047	0.052804695851927985	-0.10318172180570556	0.5438735232596619	0.052129835114286316	-0.09750042228795341	0.5126853218404984	0.031198085643014073	-0.0825378426203428	0.578911416640534	0.049565475125796676	-0.08088092576716188	0.5625177798184413	0.05188366596525762	-0.07653642775505898	0.5423208986435489	0.049119114105799666	-0.07151096630125797	0.5149387930663246	0.027934952273561908	-0.061394888374348366	0.4622830810018609	-0.023011742144276925	-0.051989820119430985
62	2.0999999999999908	0.5151316815356604	-0.007597515265422405	-0.1627639176157616	0.5048702835080706	-0.012085888902194641	-0.14270006423172532	0.48821528440091677	-0.022426572632663566	-0.11852360326807054	0.47839008463903077	-0.02731406960756455	-0.0752862603460156	0.5774165266520728	0.03439795418170055	-0.15434655772276845	0.5604181874079035	0.031966171126855625	-0.1485895711747296	0.537685552225761	0.027273688487821468	-0.1389346378576123	0.5054695272979433	0.011069111096668971	-0.11628126055036786	0.5891281668230746	0.04808159092691722	-0.13495193918869536	0.5721421160875948	0.04584782531498871	-0.12907959965468752	0.5448713690359155	0.04196192483038169	-0.11956037265523739	0.5094631422535612	0.023271294813997145	-0.09973448688133058	0.5854868510646953	0.04949163806483137	-0.1065203191556981	0.5680952503113706	0.05287559118911167	-0.10319149286259888	0.5438650635143655	0.052136992295572615	-0.09748776614608284	0.5126564460630981	0.03121850334702625	-0.08254923037814355	0.5789167987049924	0.049682563550016545	-0.08080857361920935	0.5625150527321825	0.051924771174720774	-0.07645481271498722	0.5423090599430112	0.04916853364993268	-0.07146151429501424	0.5149539883365656	0.027914928864282207	-0.061418218420570825	0.4622830810018608	-0.023011742144276925	-0.051989820119430985
63	2.133333333333324	0.5152717174901373	-0.007626061366980075	-0.1627104893764133	0.5049931589719338	-0.012142695417481586	-0.14266176743106934	0.48833704454388505	-0.022538976881730677	-0.11850993139577265	0.47838529232718474	-0.027316097096586556	-0.07528919852056304	0.5772581161703683	0.0347495846623504	-0.15451355877675066	0.5603063607043841	0.03216862224020317	-0.14868461207970984	0.5376223752337852	0.027365577454339873	-0.13896980909896717	0.5054882564806139	0.011055274075470578	-0.11627601017401124	0.5890366979974645	0.0482562152250301	-0.1350933242100429	0.5720688660126129	0.04597298666405608	-0.1291874335005736	0.5448334100463534	0.04200696690251854	-0.11960045401999486	0.509480910086105	0.023239931990228058	-0.09974731653088481	0.5855091323895018	0.04941392750349849	-0.10651035895240302	0.5681227508786296	0.05283146549934925	-0.10318858653314833	0.5438929861671392	0.05209717406345715	-0.09748251107684774	0.5126490046964914	0.031216603958251987	-0.08256486220232895	0.5789869261653936	0.0496134298789177	-0.08075097779553853	0.5625861492210462	0.05183134233520642	-0.07638115171684812	0.5423647475968049	0.04912340787890457	-0.07142393209981479	0.5149464348578989	0.027915645004855272	-0.06145646645253766	0.4622830810018608	-0.023011742144276925	-0.051989820119430985
64	2.1666666666666576	0.5153484402053574	-0.007643555199552177	-0.16270742407969818	0.5050504420515455	-0.012176058152135294	-0.14267226371076402	0.4883647271330285	-0.022552009817085272	-0.11853211986892664	0.47834252077690065	-0.027290473958859307	-0.07532341313831137	0.5771160453886911	0.03500920504493982	-0.15461499614132457	0.5601908798185634	0.032346059907369495	-0.1487458881682166	0.5375515786665135	0.027429391585246377	-0.13898380596424886	0.5054166257649841	0.011124025127386195	-0.11628764063414582	0.5889387492164747	0.04836947930635982	-0.13515465832167317	0.571972036389396	0.04608244447790011	-0.12924702533232318	0.544751400263736	0.04209244668034373	-0.1196279590320053	0.5094344871171649	0.02327446210054457	-0.09975971746029122	0.5854805147359795	0.04936816213150402	-0.1064558453743083	0.5680969728203538	0.05278905572870596	-0.10312268509248756	0.5438590686904899	0.05212277110089192	-0.09744289221014851	0.5125575181879228	0.03130585859287244	-0.08255699540247485	0.5790346938757539	0.04957700803608611	-0.08066742317433895	0.5626342549853746	0.051778750254350914	-0.07628816120372772	0.5424054477027892	0.04909625287442021	-0.07134735330109832	0.5149207582970983	0.027944531424704933	-0.06144381963950252	0.4622830810018608	-0.023011742144276925	-0.051989820119430985
